  0
SECTION
  2
HEADER
  9
$ACADVER
  1
AC1024
  9
$ACADMAINTVER
 70
6
  9
$DWGCODEPAGE
  3
ANSI_1252
  9
$LASTSAVEDBY
  1
ezdxf
  9
$INSBASE
 10
0.0
 20
0.0
 30
0.0
  9
$EXTMIN
 10
1e+20
 20
1e+20
 30
1e+20
  9
$EXTMAX
 10
-1e+20
 20
-1e+20
 30
-1e+20
  9
$LIMMIN
 10
0.0
 20
0.0
  9
$LIMMAX
 10
420.0
 20
297.0
  9
$ORTHOMODE
 70
0
  9
$REGENMODE
 70
1
  9
$FILLMODE
 70
1
  9
$QTEXTMODE
 70
0
  9
$MIRRTEXT
 70
1
  9
$LTSCALE
 40
1.0
  9
$ATTMODE
 70
1
  9
$TEXTSIZE
 40
2.5
  9
$TRACEWID
 40
1.0
  9
$TEXTSTYLE
  7
Standard
  9
$CLAYER
  8
0
  9
$CELTYPE
  6
ByLayer
  9
$CECOLOR
 62
256
  9
$CELTSCALE
 40
1.0
  9
$DISPSILH
 70
0
  9
$DIMSCALE
 40
1.0
  9
$DIMASZ
 40
2.5
  9
$DIMEXO
 40
0.625
  9
$DIMDLI
 40
3.75
  9
$DIMRND
 40
0.0
  9
$DIMDLE
 40
0.0
  9
$DIMEXE
 40
1.25
  9
$DIMTP
 40
0.0
  9
$DIMTM
 40
0.0
  9
$DIMTXT
 40
2.5
  9
$DIMCEN
 40
2.5
  9
$DIMTSZ
 40
0.0
  9
$DIMTOL
 70
0
  9
$DIMLIM
 70
0
  9
$DIMTIH
 70
0
  9
$DIMTOH
 70
0
  9
$DIMSE1
 70
0
  9
$DIMSE2
 70
0
  9
$DIMTAD
 70
1
  9
$DIMZIN
 70
8
  9
$DIMBLK
  1

  9
$DIMASO
 70
1
  9
$DIMSHO
 70
1
  9
$DIMPOST
  1

  9
$DIMAPOST
  1

  9
$DIMALT
 70
0
  9
$DIMALTD
 70
3
  9
$DIMALTF
 40
0.03937007874
  9
$DIMLFAC
 40
1.0
  9
$DIMTOFL
 70
1
  9
$DIMTVP
 40
0.0
  9
$DIMTIX
 70
0
  9
$DIMSOXD
 70
0
  9
$DIMSAH
 70
0
  9
$DIMBLK1
  1

  9
$DIMBLK2
  1

  9
$DIMSTYLE
  2
ISO-25
  9
$DIMCLRD
 70
0
  9
$DIMCLRE
 70
0
  9
$DIMCLRT
 70
0
  9
$DIMTFAC
 40
1.0
  9
$DIMGAP
 40
0.625
  9
$DIMJUST
 70
0
  9
$DIMSD1
 70
0
  9
$DIMSD2
 70
0
  9
$DIMTOLJ
 70
0
  9
$DIMTZIN
 70
8
  9
$DIMALTZ
 70
0
  9
$DIMALTTZ
 70
0
  9
$DIMUPT
 70
0
  9
$DIMDEC
 70
2
  9
$DIMTDEC
 70
2
  9
$DIMALTU
 70
2
  9
$DIMALTTD
 70
3
  9
$DIMTXSTY
  7
Standard
  9
$DIMAUNIT
 70
0
  9
$DIMADEC
 70
0
  9
$DIMALTRND
 40
0.0
  9
$DIMAZIN
 70
0
  9
$DIMDSEP
 70
44
  9
$DIMATFIT
 70
3
  9
$DIMFRAC
 70
0
  9
$DIMLDRBLK
  1

  9
$DIMLUNIT
 70
2
  9
$DIMLWD
 70
-2
  9
$DIMLWE
 70
-2
  9
$DIMTMOVE
 70
0
  9
$DIMFXL
 40
1.0
  9
$DIMFXLON
 70
0
  9
$DIMJOGANG
 40
0.785398163397
  9
$DIMTFILL
 70
0
  9
$DIMTFILLCLR
 70
0
  9
$DIMARCSYM
 70
0
  9
$DIMLTYPE
  6

  9
$DIMLTEX1
  6

  9
$DIMLTEX2
  6

  9
$DIMTXTDIRECTION
 70
0
  9
$LUNITS
 70
2
  9
$LUPREC
 70
4
  9
$SKETCHINC
 40
1.0
  9
$FILLETRAD
 40
10.0
  9
$AUNITS
 70
0
  9
$AUPREC
 70
2
  9
$MENU
  1
.
  9
$ELEVATION
 40
0.0
  9
$PELEVATION
 40
0.0
  9
$THICKNESS
 40
0.0
  9
$LIMCHECK
 70
0
  9
$CHAMFERA
 40
0.0
  9
$CHAMFERB
 40
0.0
  9
$CHAMFERC
 40
0.0
  9
$CHAMFERD
 40
0.0
  9
$SKPOLY
 70
0
  9
$TDCREATE
 40
2461031.6820717594
  9
$TDUCREATE
 40
2458532.153996898
  9
$TDUPDATE
 40
2461031.6820717594
  9
$TDUUPDATE
 40
2458532.1544311
  9
$TDINDWG
 40
0.0
  9
$TDUSRTIMER
 40
0.0
  9
$USRTIMER
 70
1
  9
$ANGBASE
 50
0.0
  9
$ANGDIR
 70
0
  9
$PDMODE
 70
0
  9
$PDSIZE
 40
0.0
  9
$PLINEWID
 40
0.0
  9
$SPLFRAME
 70
0
  9
$SPLINETYPE
 70
6
  9
$SPLINESEGS
 70
8
  9
$HANDSEED
  5
B4
  9
$SURFTAB1
 70
6
  9
$SURFTAB2
 70
6
  9
$SURFTYPE
 70
6
  9
$SURFU
 70
6
  9
$SURFV
 70
6
  9
$UCSBASE
  2

  9
$UCSNAME
  2

  9
$UCSORG
 10
0.0
 20
0.0
 30
0.0
  9
$UCSXDIR
 10
1.0
 20
0.0
 30
0.0
  9
$UCSYDIR
 10
0.0
 20
1.0
 30
0.0
  9
$UCSORTHOREF
  2

  9
$UCSORTHOVIEW
 70
0
  9
$UCSORGTOP
 10
0.0
 20
0.0
 30
0.0
  9
$UCSORGBOTTOM
 10
0.0
 20
0.0
 30
0.0
  9
$UCSORGLEFT
 10
0.0
 20
0.0
 30
0.0
  9
$UCSORGRIGHT
 10
0.0
 20
0.0
 30
0.0
  9
$UCSORGFRONT
 10
0.0
 20
0.0
 30
0.0
  9
$UCSORGBACK
 10
0.0
 20
0.0
 30
0.0
  9
$PUCSBASE
  2

  9
$PUCSNAME
  2

  9
$PUCSORG
 10
0.0
 20
0.0
 30
0.0
  9
$PUCSXDIR
 10
1.0
 20
0.0
 30
0.0
  9
$PUCSYDIR
 10
0.0
 20
1.0
 30
0.0
  9
$PUCSORTHOREF
  2

  9
$PUCSORTHOVIEW
 70
0
  9
$PUCSORGTOP
 10
0.0
 20
0.0
 30
0.0
  9
$PUCSORGBOTTOM
 10
0.0
 20
0.0
 30
0.0
  9
$PUCSORGLEFT
 10
0.0
 20
0.0
 30
0.0
  9
$PUCSORGRIGHT
 10
0.0
 20
0.0
 30
0.0
  9
$PUCSORGFRONT
 10
0.0
 20
0.0
 30
0.0
  9
$PUCSORGBACK
 10
0.0
 20
0.0
 30
0.0
  9
$USERI1
 70
0
  9
$USERI2
 70
0
  9
$USERI3
 70
0
  9
$USERI4
 70
0
  9
$USERI5
 70
0
  9
$USERR1
 40
0.0
  9
$USERR2
 40
0.0
  9
$USERR3
 40
0.0
  9
$USERR4
 40
0.0
  9
$USERR5
 40
0.0
  9
$WORLDVIEW
 70
1
  9
$SHADEDGE
 70
3
  9
$SHADEDIF
 70
70
  9
$TILEMODE
 70
1
  9
$MAXACTVP
 70
64
  9
$PINSBASE
 10
0.0
 20
0.0
 30
0.0
  9
$PLIMCHECK
 70
0
  9
$PEXTMIN
 10
1e+20
 20
1e+20
 30
1e+20
  9
$PEXTMAX
 10
-1e+20
 20
-1e+20
 30
-1e+20
  9
$PLIMMIN
 10
0.0
 20
0.0
  9
$PLIMMAX
 10
420.0
 20
297.0
  9
$UNITMODE
 70
0
  9
$VISRETAIN
 70
1
  9
$PLINEGEN
 70
0
  9
$PSLTSCALE
 70
1
  9
$TREEDEPTH
 70
3020
  9
$CMLSTYLE
  2
Standard
  9
$CMLJUST
 70
0
  9
$CMLSCALE
 40
20.0
  9
$PROXYGRAPHICS
 70
1
  9
$MEASUREMENT
 70
1
  9
$CELWEIGHT
370
-1
  9
$ENDCAPS
280
0
  9
$JOINSTYLE
280
0
  9
$LWDISPLAY
290
0
  9
$INSUNITS
 70
4
  9
$HYPERLINKBASE
  1

  9
$STYLESHEET
  1

  9
$XEDIT
290
1
  9
$CEPSNTYPE
380
0
  9
$PSTYLEMODE
290
1
  9
$FINGERPRINTGUID
  2
{7AFA5D37-FA6B-4F47-B915-FB463D89552A}
  9
$VERSIONGUID
  2
{7383DEA5-13C8-487B-8259-D4D43E3B439C}
  9
$EXTNAMES
290
1
  9
$PSVPSCALE
 40
0.0
  9
$OLESTARTUP
290
0
  9
$SORTENTS
280
127
  9
$INDEXCTL
280
0
  9
$HIDETEXT
280
1
  9
$XCLIPFRAME
280
1
  9
$HALOGAP
280
0
  9
$OBSCOLOR
 70
257
  9
$OBSLTYPE
280
0
  9
$INTERSECTIONDISPLAY
280
0
  9
$INTERSECTIONCOLOR
 70
257
  9
$DIMASSOC
280
2
  9
$PROJECTNAME
  1

  9
$CAMERADISPLAY
290
0
  9
$LENSLENGTH
 40
50.0
  9
$CAMERAHEIGHT
 40
0.0
  9
$STEPSPERSEC
 40
24.0
  9
$STEPSIZE
 40
100.0
  9
$3DDWFPREC
 40
2.0
  9
$PSOLWIDTH
 40
0.005
  9
$PSOLHEIGHT
 40
0.08
  9
$LOFTANG1
 40
1.570796326795
  9
$LOFTANG2
 40
1.570796326795
  9
$LOFTMAG1
 40
0.0
  9
$LOFTMAG2
 40
0.0
  9
$LOFTPARAM
 70
7
  9
$LOFTNORMALS
280
1
  9
$LATITUDE
 40
37.795
  9
$LONGITUDE
 40
-122.394
  9
$NORTHDIRECTION
 40
0.0
  9
$TIMEZONE
 70
-8000
  9
$LIGHTGLYPHDISPLAY
280
1
  9
$TILEMODELIGHTSYNCH
280
1
  9
$CMATERIAL
347
20
  9
$SOLIDHIST
280
0
  9
$SHOWHIST
280
1
  9
$DWFFRAME
280
2
  9
$DGNFRAME
280
2
  9
$REALWORLDSCALE
290
1
  9
$INTERFERECOLOR
 62
256
  9
$CSHADOW
280
0
  9
$SHADOWPLANELOCATION
 40
0.0
  0
ENDSEC
  0
SECTION
  2
CLASSES
  0
CLASS
  1
ACDBDICTIONARYWDFLT
  2
AcDbDictionaryWithDefault
  3
ObjectDBX Classes
 90
0
 91
0
280
0
281
0
  0
CLASS
  1
SUN
  2
AcDbSun
  3
SCENEOE
 90
1153
 91
0
280
0
281
0
  0
CLASS
  1
VISUALSTYLE
  2
AcDbVisualStyle
  3
ObjectDBX Classes
 90
4095
 91
0
280
0
281
0
  0
CLASS
  1
MATERIAL
  2
AcDbMaterial
  3
ObjectDBX Classes
 90
1153
 91
0
280
0
281
0
  0
CLASS
  1
SCALE
  2
AcDbScale
  3
ObjectDBX Classes
 90
1153
 91
0
280
0
281
0
  0
CLASS
  1
TABLESTYLE
  2
AcDbTableStyle
  3
ObjectDBX Classes
 90
4095
 91
0
280
0
281
0
  0
CLASS
  1
MLEADERSTYLE
  2
AcDbMLeaderStyle
  3
ACDB_MLEADERSTYLE_CLASS
 90
4095
 91
0
280
0
281
0
  0
CLASS
  1
DICTIONARYVAR
  2
AcDbDictionaryVar
  3
ObjectDBX Classes
 90
0
 91
0
280
0
281
0
  0
CLASS
  1
CELLSTYLEMAP
  2
AcDbCellStyleMap
  3
ObjectDBX Classes
 90
1152
 91
0
280
0
281
0
  0
CLASS
  1
MENTALRAYRENDERSETTINGS
  2
AcDbMentalRayRenderSettings
  3
SCENEOE
 90
1024
 91
0
280
0
281
0
  0
CLASS
  1
ACDBDETAILVIEWSTYLE
  2
AcDbDetailViewStyle
  3
ObjectDBX Classes
 90
1025
 91
0
280
0
281
0
  0
CLASS
  1
ACDBSECTIONVIEWSTYLE
  2
AcDbSectionViewStyle
  3
ObjectDBX Classes
 90
1025
 91
0
280
0
281
0
  0
CLASS
  1
RASTERVARIABLES
  2
AcDbRasterVariables
  3
ISM
 90
0
 91
0
280
0
281
0
  0
CLASS
  1
ACDBPLACEHOLDER
  2
AcDbPlaceHolder
  3
ObjectDBX Classes
 90
0
 91
0
280
0
281
0
  0
CLASS
  1
LAYOUT
  2
AcDbLayout
  3
ObjectDBX Classes
 90
0
 91
0
280
0
281
0
  0
ENDSEC
  0
SECTION
  2
TABLES
  0
TABLE
  2
VPORT
  5
8
330
0
100
AcDbSymbolTable
 70
1
  0
VPORT
  5
23
330
8
100
AcDbSymbolTableRecord
100
AcDbViewportTableRecord
  2
*Active
 70
0
 10
0.0
 20
0.0
 11
1.0
 21
1.0
 12
0.0
 22
0.0
 13
0.0
 23
0.0
 14
0.5
 24
0.5
 15
0.5
 25
0.5
 16
0.0
 26
0.0
 36
1.0
 17
0.0
 27
0.0
 37
0.0
 40
1000.0
 41
1.34
 42
50.0
 43
0.0
 44
0.0
 50
0.0
 51
0.0
 71
0
 72
1000
 73
1
 74
3
 75
0
 76
0
 77
0
 78
0
281
0
 65
0
146
0.0
  0
ENDTAB
  0
TABLE
  2
LTYPE
  5
2
330
0
100
AcDbSymbolTable
 70
3
  0
LTYPE
  5
24
330
2
100
AcDbSymbolTableRecord
100
AcDbLinetypeTableRecord
  2
ByBlock
 70
0
  3

 72
65
 73
0
 40
0.0
  0
LTYPE
  5
25
330
2
100
AcDbSymbolTableRecord
100
AcDbLinetypeTableRecord
  2
ByLayer
 70
0
  3

 72
65
 73
0
 40
0.0
  0
LTYPE
  5
26
330
2
100
AcDbSymbolTableRecord
100
AcDbLinetypeTableRecord
  2
Continuous
 70
0
  3

 72
65
 73
0
 40
0.0
  0
ENDTAB
  0
TABLE
  2
LAYER
  5
1
330
0
100
AcDbSymbolTable
 70
7
  0
LAYER
  5
27
330
1
100
AcDbSymbolTableRecord
100
AcDbLayerTableRecord
  2
0
 70
0
 62
7
  6
Continuous
370
-3
390
13
347
21
  0
LAYER
  5
28
330
1
100
AcDbSymbolTableRecord
100
AcDbLayerTableRecord
  2
Defpoints
 70
0
 62
7
  6
Continuous
290
0
370
-3
390
13
347
21
  0
LAYER
  5
2F
330
1
100
AcDbSymbolTableRecord
100
AcDbLayerTableRecord
  2
BORDER
 70
0
 62
7
  6
Continuous
370
60
390
13
347
21
  0
LAYER
  5
30
330
1
100
AcDbSymbolTableRecord
100
AcDbLayerTableRecord
  2
OBJECT
 70
0
 62
7
  6
Continuous
370
50
390
13
347
21
  0
LAYER
  5
31
330
1
100
AcDbSymbolTableRecord
100
AcDbLayerTableRecord
  2
BRACING
 70
0
 62
7
  6
Continuous
370
30
390
13
347
21
  0
LAYER
  5
32
330
1
100
AcDbSymbolTableRecord
100
AcDbLayerTableRecord
  2
DIMENSIONS
 70
0
 62
7
  6
Continuous
370
25
390
13
347
21
  0
LAYER
  5
33
330
1
100
AcDbSymbolTableRecord
100
AcDbLayerTableRecord
  2
TEXT
 70
0
 62
7
  6
Continuous
370
25
390
13
347
21
  0
ENDTAB
  0
TABLE
  2
STYLE
  5
5
330
0
100
AcDbSymbolTable
 70
3
  0
STYLE
  5
29
330
5
100
AcDbSymbolTableRecord
100
AcDbTextStyleTableRecord
  2
Standard
 70
0
 40
0.0
 41
1.0
 50
0.0
 71
0
 42
2.5
  3
txt
  4

  0
STYLE
  5
34
330
5
100
AcDbSymbolTableRecord
100
AcDbTextStyleTableRecord
  2
ROMANS
 70
0
 40
0.0
 41
0.8
 50
0.0
 71
0
 42
2.5
  3
romans.shx
  4

  0
STYLE
  5
AF
330
5
100
AcDbSymbolTableRecord
100
AcDbTextStyleTableRecord
  2
BOLD_TEXT
 70
0
 40
0.0
 41
1.0
 50
0.0
 71
0
 42
2.5
  3
arial.ttf
  4

  0
ENDTAB
  0
TABLE
  2
VIEW
  5
7
330
0
100
AcDbSymbolTable
 70
0
  0
ENDTAB
  0
TABLE
  2
UCS
  5
6
330
0
100
AcDbSymbolTable
 70
0
  0
ENDTAB
  0
TABLE
  2
APPID
  5
3
330
0
100
AcDbSymbolTable
 70
3
  0
APPID
  5
2A
330
3
100
AcDbSymbolTableRecord
100
AcDbRegAppTableRecord
  2
ACAD
 70
0
  0
APPID
  5
B1
330
3
100
AcDbSymbolTableRecord
100
AcDbRegAppTableRecord
  2
HATCHBACKGROUNDCOLOR
 70
0
  0
APPID
  5
B2
330
3
100
AcDbSymbolTableRecord
100
AcDbRegAppTableRecord
  2
EZDXF
 70
0
  0
ENDTAB
  0
TABLE
  2
DIMSTYLE
  5
4
330
0
100
AcDbSymbolTable
 70
1
100
AcDbDimStyleTable
  0
DIMSTYLE
105
2B
330
4
100
AcDbSymbolTableRecord
100
AcDbDimStyleTableRecord
  2
Standard
 70
0
 40
1.0
 41
2.5
 42
0.625
 43
3.75
 44
1.25
 45
0.0
 46
0.0
 47
0.0
 48
0.0
 49
2.5
140
2.5
141
2.5
142
0.0
143
0.03937007874
144
1.0
145
0.0
146
1.0
147
0.625
148
0.0
 69
0
 70
0
 71
0
 72
0
 73
0
 74
0
 75
0
 76
0
 77
1
 78
8
 79
3
170
0
171
3
172
1
173
0
174
0
175
0
176
0
177
0
178
0
179
2
271
2
272
2
273
2
274
3
275
0
276
0
277
2
278
44
279
0
280
0
281
0
282
0
283
0
284
8
285
0
286
0
288
0
289
3
290
0
371
-2
372
-2
  0
ENDTAB
  0
TABLE
  2
BLOCK_RECORD
  5
9
330
0
100
AcDbSymbolTable
 70
2
  0
BLOCK_RECORD
  5
17
330
9
100
AcDbSymbolTableRecord
100
AcDbBlockTableRecord
  2
*Model_Space
340
1A
 70
0
280
1
281
0
  0
BLOCK_RECORD
  5
1B
330
9
100
AcDbSymbolTableRecord
100
AcDbBlockTableRecord
  2
*Paper_Space
340
1E
 70
0
280
1
281
0
  0
ENDTAB
  0
ENDSEC
  0
SECTION
  2
BLOCKS
  0
BLOCK
  5
18
330
17
100
AcDbEntity
  8
0
100
AcDbBlockBegin
  2
*Model_Space
 70
0
 10
0.0
 20
0.0
 30
0.0
  3
*Model_Space
  1

  0
ENDBLK
  5
19
330
17
100
AcDbEntity
  8
0
100
AcDbBlockEnd
  0
BLOCK
  5
1C
330
1B
100
AcDbEntity
  8
0
100
AcDbBlockBegin
  2
*Paper_Space
 70
0
 10
0.0
 20
0.0
 30
0.0
  3
*Paper_Space
  1

  0
ENDBLK
  5
1D
330
1B
100
AcDbEntity
  8
0
100
AcDbBlockEnd
  0
ENDSEC
  0
SECTION
  2
ENTITIES
  0
LWPOLYLINE
  5
35
330
17
100
AcDbEntity
  8
BORDER
100
AcDbPolyline
 90
5
 70
1
 10
0.0
 20
0.0
 10
420.0
 20
0.0
 10
420.0
 20
297.0
 10
0.0
 20
297.0
 10
0.0
 20
0.0
  0
LWPOLYLINE
  5
36
330
17
100
AcDbEntity
  8
BORDER
100
AcDbPolyline
 90
5
 70
1
 10
30.0
 20
15.0
 10
390.0
 20
15.0
 10
390.0
 20
282.0
 10
30.0
 20
282.0
 10
30.0
 20
15.0
  0
LWPOLYLINE
  5
37
330
17
100
AcDbEntity
  8
OBJECT
100
AcDbPolyline
 90
4
 70
1
 10
43.669623059866964
 20
223.7311529933481
 10
196.33037694013302
 20
223.7311529933481
 10
196.33037694013302
 20
220.9041019955654
 10
43.669623059866964
 20
220.9041019955654
  0
LWPOLYLINE
  5
38
330
17
100
AcDbEntity
  8
OBJECT
100
AcDbPolyline
 90
2
 70
0
 43
0.5
 10
47.627494456762754
 20
220.9041019955654
 10
51.019955654102
 20
220.9041019955654
  0
LWPOLYLINE
  5
39
330
17
100
AcDbEntity
  8
OBJECT
100
AcDbPolyline
 90
2
 70
0
 43
0.2
 10
49.32372505543238
 20
220.9041019955654
 10
49.32372505543238
 20
206.7688470066519
  0
LWPOLYLINE
  5
3A
330
17
100
AcDbEntity
  8
OBJECT
100
AcDbPolyline
 90
2
 70
0
 43
0.5
 10
47.627494456762754
 20
206.7688470066519
 10
51.019955654102
 20
206.7688470066519
  0
TEXT
  5
3B
330
17
100
AcDbEntity
  8
TEXT
100
AcDbText
 10
50.019955654102
 20
213.25
 30
0.0
 40
1.5
  1
G1
100
AcDbText
  0
LWPOLYLINE
  5
3C
330
17
100
AcDbEntity
  8
OBJECT
100
AcDbPolyline
 90
2
 70
0
 43
0.5
 10
82.96563192904655
 20
220.9041019955654
 10
86.35809312638581
 20
220.9041019955654
  0
LWPOLYLINE
  5
3D
330
17
100
AcDbEntity
  8
OBJECT
100
AcDbPolyline
 90
2
 70
0
 43
0.2
 10
84.66186252771618
 20
220.9041019955654
 10
84.66186252771618
 20
206.7688470066519
  0
LWPOLYLINE
  5
3E
330
17
100
AcDbEntity
  8
OBJECT
100
AcDbPolyline
 90
2
 70
0
 43
0.5
 10
82.96563192904655
 20
206.7688470066519
 10
86.35809312638581
 20
206.7688470066519
  0
TEXT
  5
3F
330
17
100
AcDbEntity
  8
TEXT
100
AcDbText
 10
85.35809312638581
 20
213.25
 30
0.0
 40
1.5
  1
G2
100
AcDbText
  0
LWPOLYLINE
  5
40
330
17
100
AcDbEntity
  8
OBJECT
100
AcDbPolyline
 90
2
 70
0
 43
0.5
 10
118.30376940133037
 20
220.9041019955654
 10
121.69623059866963
 20
220.9041019955654
  0
LWPOLYLINE
  5
41
330
17
100
AcDbEntity
  8
OBJECT
100
AcDbPolyline
 90
2
 70
0
 43
0.2
 10
120.0
 20
220.9041019955654
 10
120.0
 20
206.7688470066519
  0
LWPOLYLINE
  5
42
330
17
100
AcDbEntity
  8
OBJECT
100
AcDbPolyline
 90
2
 70
0
 43
0.5
 10
118.30376940133037
 20
206.7688470066519
 10
121.69623059866963
 20
206.7688470066519
  0
TEXT
  5
43
330
17
100
AcDbEntity
  8
TEXT
100
AcDbText
 10
120.69623059866963
 20
213.25
 30
0.0
 40
1.5
  1
G3
100
AcDbText
  0
LWPOLYLINE
  5
44
330
17
100
AcDbEntity
  8
OBJECT
100
AcDbPolyline
 90
2
 70
0
 43
0.5
 10
153.64190687361418
 20
220.9041019955654
 10
157.0343680709534
 20
220.9041019955654
  0
LWPOLYLINE
  5
45
330
17
100
AcDbEntity
  8
OBJECT
100
AcDbPolyline
 90
2
 70
0
 43
0.2
 10
155.3381374722838
 20
220.9041019955654
 10
155.3381374722838
 20
206.7688470066519
  0
LWPOLYLINE
  5
46
330
17
100
AcDbEntity
  8
OBJECT
100
AcDbPolyline
 90
2
 70
0
 43
0.5
 10
153.64190687361418
 20
206.7688470066519
 10
157.0343680709534
 20
206.7688470066519
  0
TEXT
  5
47
330
17
100
AcDbEntity
  8
TEXT
100
AcDbText
 10
156.0343680709534
 20
213.25
 30
0.0
 40
1.5
  1
G4
100
AcDbText
  0
LWPOLYLINE
  5
48
330
17
100
AcDbEntity
  8
OBJECT
100
AcDbPolyline
 90
2
 70
0
 43
0.5
 10
188.98004434589802
 20
220.9041019955654
 10
192.37250554323725
 20
220.9041019955654
  0
LWPOLYLINE
  5
49
330
17
100
AcDbEntity
  8
OBJECT
100
AcDbPolyline
 90
2
 70
0
 43
0.2
 10
190.67627494456764
 20
220.9041019955654
 10
190.67627494456764
 20
206.7688470066519
  0
LWPOLYLINE
  5
4A
330
17
100
AcDbEntity
  8
OBJECT
100
AcDbPolyline
 90
2
 70
0
 43
0.5
 10
188.98004434589802
 20
206.7688470066519
 10
192.37250554323725
 20
206.7688470066519
  0
TEXT
  5
4B
330
17
100
AcDbEntity
  8
TEXT
100
AcDbText
 10
191.37250554323725
 20
213.25
 30
0.0
 40
1.5
  1
G5
100
AcDbText
  0
LINE
  5
4C
330
17
100
AcDbEntity
  8
BRACING
100
AcDbLine
 10
49.32372505543238
 20
220.9041019955654
 30
0.0
 11
84.66186252771618
 21
206.7688470066519
 31
0.0
  0
LINE
  5
4D
330
17
100
AcDbEntity
  8
BRACING
100
AcDbLine
 10
49.32372505543238
 20
206.7688470066519
 30
0.0
 11
84.66186252771618
 21
220.9041019955654
 31
0.0
  0
LINE
  5
4E
330
17
100
AcDbEntity
  8
DIMENSIONS
100
AcDbLine
 10
49.32372505543238
 20
205.2688470066519
 30
0.0
 11
49.32372505543238
 21
201.7688470066519
 31
0.0
  0
LINE
  5
4F
330
17
100
AcDbEntity
  8
DIMENSIONS
100
AcDbLine
 10
84.66186252771618
 20
205.2688470066519
 30
0.0
 11
84.66186252771618
 21
201.7688470066519
 31
0.0
  0
LINE
  5
50
330
17
100
AcDbEntity
  8
DIMENSIONS
100
AcDbLine
 10
49.32372505543238
 20
201.7688470066519
 30
0.0
 11
84.66186252771618
 21
201.7688470066519
 31
0.0
  0
LWPOLYLINE
  5
51
330
17
100
AcDbEntity
  8
DIM_ARROW
100
AcDbPolyline
 90
3
 70
1
 10
49.32372505543238
 20
201.7688470066519
 10
52.32372505543238
 20
201.2688470066519
 10
52.32372505543238
 20
202.2688470066519
  0
LWPOLYLINE
  5
52
330
17
100
AcDbEntity
  8
DIM_ARROW
100
AcDbPolyline
 90
3
 70
1
 10
84.66186252771618
 20
201.7688470066519
 10
81.66186252771618
 20
202.2688470066519
 10
81.66186252771618
 20
201.2688470066519
  0
TEXT
  5
53
330
17
100
AcDbEntity
  8
TEXT
100
AcDbText
 10
66.99279379157429
 20
195.7688470066519
 30
0.0
 40
1.5
  1
Eq
  7
ROMANS
 72
1
 11
66.99279379157429
 21
195.7688470066519
 31
0.0
100
AcDbText
 73
2
  0
LINE
  5
54
330
17
100
AcDbEntity
  8
BRACING
100
AcDbLine
 10
84.66186252771618
 20
220.9041019955654
 30
0.0
 11
120.0
 21
206.7688470066519
 31
0.0
  0
LINE
  5
55
330
17
100
AcDbEntity
  8
BRACING
100
AcDbLine
 10
84.66186252771618
 20
206.7688470066519
 30
0.0
 11
120.0
 21
220.9041019955654
 31
0.0
  0
LINE
  5
56
330
17
100
AcDbEntity
  8
DIMENSIONS
100
AcDbLine
 10
84.66186252771618
 20
205.2688470066519
 30
0.0
 11
84.66186252771618
 21
201.7688470066519
 31
0.0
  0
LINE
  5
57
330
17
100
AcDbEntity
  8
DIMENSIONS
100
AcDbLine
 10
120.0
 20
205.2688470066519
 30
0.0
 11
120.0
 21
201.7688470066519
 31
0.0
  0
LINE
  5
58
330
17
100
AcDbEntity
  8
DIMENSIONS
100
AcDbLine
 10
84.66186252771618
 20
201.7688470066519
 30
0.0
 11
120.0
 21
201.7688470066519
 31
0.0
  0
LWPOLYLINE
  5
59
330
17
100
AcDbEntity
  8
DIM_ARROW
100
AcDbPolyline
 90
3
 70
1
 10
84.66186252771618
 20
201.7688470066519
 10
87.66186252771618
 20
201.2688470066519
 10
87.66186252771618
 20
202.2688470066519
  0
LWPOLYLINE
  5
5A
330
17
100
AcDbEntity
  8
DIM_ARROW
100
AcDbPolyline
 90
3
 70
1
 10
120.0
 20
201.7688470066519
 10
117.0
 20
202.2688470066519
 10
117.0
 20
201.2688470066519
  0
TEXT
  5
5B
330
17
100
AcDbEntity
  8
TEXT
100
AcDbText
 10
102.33093126385809
 20
195.7688470066519
 30
0.0
 40
1.5
  1
Eq
  7
ROMANS
 72
1
 11
102.33093126385809
 21
195.7688470066519
 31
0.0
100
AcDbText
 73
2
  0
LINE
  5
5C
330
17
100
AcDbEntity
  8
BRACING
100
AcDbLine
 10
120.0
 20
220.9041019955654
 30
0.0
 11
155.3381374722838
 21
206.7688470066519
 31
0.0
  0
LINE
  5
5D
330
17
100
AcDbEntity
  8
BRACING
100
AcDbLine
 10
120.0
 20
206.7688470066519
 30
0.0
 11
155.3381374722838
 21
220.9041019955654
 31
0.0
  0
LINE
  5
5E
330
17
100
AcDbEntity
  8
DIMENSIONS
100
AcDbLine
 10
120.0
 20
205.2688470066519
 30
0.0
 11
120.0
 21
201.7688470066519
 31
0.0
  0
LINE
  5
5F
330
17
100
AcDbEntity
  8
DIMENSIONS
100
AcDbLine
 10
155.3381374722838
 20
205.2688470066519
 30
0.0
 11
155.3381374722838
 21
201.7688470066519
 31
0.0
  0
LINE
  5
60
330
17
100
AcDbEntity
  8
DIMENSIONS
100
AcDbLine
 10
120.0
 20
201.7688470066519
 30
0.0
 11
155.3381374722838
 21
201.7688470066519
 31
0.0
  0
LWPOLYLINE
  5
61
330
17
100
AcDbEntity
  8
DIM_ARROW
100
AcDbPolyline
 90
3
 70
1
 10
120.0
 20
201.7688470066519
 10
123.0
 20
201.2688470066519
 10
123.0
 20
202.2688470066519
  0
LWPOLYLINE
  5
62
330
17
100
AcDbEntity
  8
DIM_ARROW
100
AcDbPolyline
 90
3
 70
1
 10
155.3381374722838
 20
201.7688470066519
 10
152.3381374722838
 20
202.2688470066519
 10
152.3381374722838
 20
201.2688470066519
  0
TEXT
  5
63
330
17
100
AcDbEntity
  8
TEXT
100
AcDbText
 10
137.6690687361419
 20
195.7688470066519
 30
0.0
 40
1.5
  1
Eq
  7
ROMANS
 72
1
 11
137.6690687361419
 21
195.7688470066519
 31
0.0
100
AcDbText
 73
2
  0
LINE
  5
64
330
17
100
AcDbEntity
  8
BRACING
100
AcDbLine
 10
155.3381374722838
 20
220.9041019955654
 30
0.0
 11
190.67627494456764
 21
206.7688470066519
 31
0.0
  0
LINE
  5
65
330
17
100
AcDbEntity
  8
BRACING
100
AcDbLine
 10
155.3381374722838
 20
206.7688470066519
 30
0.0
 11
190.67627494456764
 21
220.9041019955654
 31
0.0
  0
LINE
  5
66
330
17
100
AcDbEntity
  8
DIMENSIONS
100
AcDbLine
 10
155.3381374722838
 20
205.2688470066519
 30
0.0
 11
155.3381374722838
 21
201.7688470066519
 31
0.0
  0
LINE
  5
67
330
17
100
AcDbEntity
  8
DIMENSIONS
100
AcDbLine
 10
190.67627494456764
 20
205.2688470066519
 30
0.0
 11
190.67627494456764
 21
201.7688470066519
 31
0.0
  0
LINE
  5
68
330
17
100
AcDbEntity
  8
DIMENSIONS
100
AcDbLine
 10
155.3381374722838
 20
201.7688470066519
 30
0.0
 11
190.67627494456764
 21
201.7688470066519
 31
0.0
  0
LWPOLYLINE
  5
69
330
17
100
AcDbEntity
  8
DIM_ARROW
100
AcDbPolyline
 90
3
 70
1
 10
155.3381374722838
 20
201.7688470066519
 10
158.3381374722838
 20
201.2688470066519
 10
158.3381374722838
 20
202.2688470066519
  0
LWPOLYLINE
  5
6A
330
17
100
AcDbEntity
  8
DIM_ARROW
100
AcDbPolyline
 90
3
 70
1
 10
190.67627494456764
 20
201.7688470066519
 10
187.67627494456764
 20
202.2688470066519
 10
187.67627494456764
 20
201.2688470066519
  0
TEXT
  5
6B
330
17
100
AcDbEntity
  8
TEXT
100
AcDbText
 10
173.0072062084257
 20
195.7688470066519
 30
0.0
 40
1.5
  1
Eq
  7
ROMANS
 72
1
 11
173.0072062084257
 21
195.7688470066519
 31
0.0
100
AcDbText
 73
2
  0
LINE
  5
6C
330
17
100
AcDbEntity
  8
DIMENSIONS
100
AcDbLine
 10
43.669623059866964
 20
225.2311529933481
 30
0.0
 11
43.669623059866964
 21
228.7311529933481
 31
0.0
  0
LINE
  5
6D
330
17
100
AcDbEntity
  8
DIMENSIONS
100
AcDbLine
 10
196.33037694013302
 20
225.2311529933481
 30
0.0
 11
196.33037694013302
 21
228.7311529933481
 31
0.0
  0
LINE
  5
6E
330
17
100
AcDbEntity
  8
DIMENSIONS
100
AcDbLine
 10
43.669623059866964
 20
228.7311529933481
 30
0.0
 11
196.33037694013302
 21
228.7311529933481
 31
0.0
  0
LWPOLYLINE
  5
6F
330
17
100
AcDbEntity
  8
DIM_ARROW
100
AcDbPolyline
 90
3
 70
1
 10
43.669623059866964
 20
228.7311529933481
 10
46.669623059866964
 20
228.2311529933481
 10
46.669623059866964
 20
229.2311529933481
  0
LWPOLYLINE
  5
70
330
17
100
AcDbEntity
  8
DIM_ARROW
100
AcDbPolyline
 90
3
 70
1
 10
196.33037694013302
 20
228.7311529933481
 10
193.33037694013302
 20
229.2311529933481
 10
193.33037694013302
 20
228.2311529933481
  0
TEXT
  5
71
330
17
100
AcDbEntity
  8
TEXT
100
AcDbText
 10
120.0
 20
234.7311529933481
 30
0.0
 40
1.5
  1
Width of Carriageway
  7
ROMANS
 72
1
 11
120.0
 21
234.7311529933481
 31
0.0
100
AcDbText
 73
2
  0
LINE
  5
72
330
17
100
AcDbEntity
  8
DIMENSIONS
100
AcDbLine
 10
42.49168514412417
 20
220.9041019955654
 30
0.0
 11
38.669623059866964
 21
220.9041019955654
 31
0.0
  0
LINE
  5
73
330
17
100
AcDbEntity
  8
DIMENSIONS
100
AcDbLine
 10
42.49168514412417
 20
206.7688470066519
 30
0.0
 11
38.669623059866964
 21
206.7688470066519
 31
0.0
  0
LINE
  5
74
330
17
100
AcDbEntity
  8
DIMENSIONS
100
AcDbLine
 10
38.669623059866964
 20
220.9041019955654
 30
0.0
 11
38.669623059866964
 21
206.7688470066519
 31
0.0
  0
LWPOLYLINE
  5
75
330
17
100
AcDbEntity
  8
DIM_ARROW
100
AcDbPolyline
 90
3
 70
1
 10
38.669623059866964
 20
220.9041019955654
 10
38.2769770879527
 20
218.54822616407984
 10
39.06226903178123
 20
218.54822616407984
  0
LWPOLYLINE
  5
76
330
17
100
AcDbEntity
  8
DIM_ARROW
100
AcDbPolyline
 90
3
 70
1
 10
38.669623059866964
 20
206.7688470066519
 10
39.06226903178123
 20
209.12472283813747
 10
38.2769770879527
 20
209.12472283813747
  0
TEXT
  5
77
330
17
100
AcDbEntity
  8
TEXT
100
AcDbText
 10
33.95787139689579
 20
213.83647450110865
 30
0.0
 40
1.5
  1
Depth of Girder
 50
90.0
  7
ROMANS
 72
1
 11
33.95787139689579
 21
213.83647450110865
 31
0.0
100
AcDbText
 73
2
  0
LINE
  5
78
330
17
100
AcDbEntity
  8
DIMENSIONS
100
AcDbLine
 10
43.669623059866964
 20
221.84645232815964
 30
0.0
 11
43.669623059866964
 21
217.31762749445676
 31
0.0
  0
LINE
  5
79
330
17
100
AcDbEntity
  8
DIMENSIONS
100
AcDbLine
 10
49.32372505543238
 20
221.84645232815964
 30
0.0
 11
49.32372505543238
 21
217.31762749445676
 31
0.0
  0
LINE
  5
7A
330
17
100
AcDbEntity
  8
DIMENSIONS
100
AcDbLine
 10
43.669623059866964
 20
217.31762749445676
 30
0.0
 11
49.32372505543238
 21
217.31762749445676
 31
0.0
  0
LWPOLYLINE
  5
7B
330
17
100
AcDbEntity
  8
DIM_ARROW
100
AcDbPolyline
 90
3
 70
1
 10
43.669623059866964
 20
217.31762749445676
 10
44.6119733924612
 20
217.16056910569105
 10
44.6119733924612
 20
217.47468588322246
  0
LWPOLYLINE
  5
7C
330
17
100
AcDbEntity
  8
DIM_ARROW
100
AcDbPolyline
 90
3
 70
1
 10
49.32372505543238
 20
217.31762749445676
 10
48.38137472283814
 20
217.47468588322246
 10
48.38137472283814
 20
217.16056910569105
  0
TEXT
  5
7D
330
17
100
AcDbEntity
  8
TEXT
100
AcDbText
 10
46.49667405764967
 20
215.4329268292683
 30
0.0
 40
1.5
  1
500
  7
ROMANS
 72
1
 11
46.49667405764967
 21
215.4329268292683
 31
0.0
100
AcDbText
 73
2
  0
LINE
  5
7E
330
17
100
AcDbEntity
  8
DIMENSIONS
100
AcDbLine
 10
190.67627494456764
 20
221.84645232815964
 30
0.0
 11
190.67627494456764
 21
217.31762749445676
 31
0.0
  0
LINE
  5
7F
330
17
100
AcDbEntity
  8
DIMENSIONS
100
AcDbLine
 10
196.33037694013302
 20
221.84645232815964
 30
0.0
 11
196.33037694013302
 21
217.31762749445676
 31
0.0
  0
LINE
  5
80
330
17
100
AcDbEntity
  8
DIMENSIONS
100
AcDbLine
 10
190.67627494456764
 20
217.31762749445676
 30
0.0
 11
196.33037694013302
 21
217.31762749445676
 31
0.0
  0
LWPOLYLINE
  5
81
330
17
100
AcDbEntity
  8
DIM_ARROW
100
AcDbPolyline
 90
3
 70
1
 10
190.67627494456764
 20
217.31762749445676
 10
191.61862527716187
 20
217.16056910569105
 10
191.61862527716187
 20
217.47468588322246
  0
LWPOLYLINE
  5
82
330
17
100
AcDbEntity
  8
DIM_ARROW
100
AcDbPolyline
 90
3
 70
1
 10
196.33037694013302
 20
217.31762749445676
 10
195.3880266075388
 20
217.47468588322246
 10
195.3880266075388
 20
217.16056910569105
  0
TEXT
  5
83
330
17
100
AcDbEntity
  8
TEXT
100
AcDbText
 10
193.50332594235033
 20
215.4329268292683
 30
0.0
 40
1.5
  1
500
  7
ROMANS
 72
1
 11
193.50332594235033
 21
215.4329268292683
 31
0.0
100
AcDbText
 73
2
  0
LWPOLYLINE
  5
84
330
17
100
AcDbEntity
  8
OBJECT
100
AcDbPolyline
 90
8
 70
1
 10
228.1486579490709
 20
220.2052649690296
 10
371.85134205092913
 20
220.2052649690296
 10
371.85134205092913
 20
214.2589470061941
 10
301.9821059876118
 20
205.33947006194083
 10
301.9821059876118
 20
190.47367515485206
 10
298.0178940123882
 20
190.47367515485206
 10
298.0178940123882
 20
205.33947006194083
 10
228.1486579490709
 20
214.2589470061941
  0
LINE
  5
85
330
17
100
AcDbEntity
  8
DIMENSIONS
100
AcDbLine
 10
301.23881624225737
 20
220.2052649690296
 30
0.0
 11
305.0
 21
220.2052649690296
 31
0.0
  0
LINE
  5
86
330
17
100
AcDbEntity
  8
DIMENSIONS
100
AcDbLine
 10
301.23881624225737
 20
205.33947006194083
 30
0.0
 11
305.0
 21
205.33947006194083
 31
0.0
  0
LINE
  5
87
330
17
100
AcDbEntity
  8
DIMENSIONS
100
AcDbLine
 10
305.0
 20
220.2052649690296
 30
0.0
 11
305.0
 21
205.33947006194083
 31
0.0
  0
LWPOLYLINE
  5
88
330
17
100
AcDbEntity
  8
DIM_ARROW
100
AcDbPolyline
 90
3
 70
1
 10
305.0
 20
220.2052649690296
 10
304.5870612525809
 20
217.7276324845148
 10
305.4129387474191
 20
217.7276324845148
  0
LWPOLYLINE
  5
89
330
17
100
AcDbEntity
  8
DIM_ARROW
100
AcDbPolyline
 90
3
 70
1
 10
305.0
 20
205.33947006194083
 10
305.4129387474191
 20
207.81710254645563
 10
304.5870612525809
 20
207.81710254645563
  0
TEXT
  5
8A
330
17
100
AcDbEntity
  8
TEXT
100
AcDbText
 10
320.6157949070888
 20
212.7723675154852
 30
0.0
 40
1.5
  1
  Depth of Pier Cap at Centre
  7
ROMANS
 72
1
 11
320.6157949070888
 21
212.7723675154852
 31
0.0
100
AcDbText
 73
2
  0
LINE
  5
8B
330
17
100
AcDbEntity
  8
DIMENSIONS
100
AcDbLine
 10
227.65313145216794
 20
220.2052649690296
 30
0.0
 11
223.1486579490709
 21
220.2052649690296
 31
0.0
  0
LINE
  5
8C
330
17
100
AcDbEntity
  8
DIMENSIONS
100
AcDbLine
 10
227.65313145216794
 20
214.2589470061941
 30
0.0
 11
223.1486579490709
 21
214.2589470061941
 31
0.0
  0
LINE
  5
8D
330
17
100
AcDbEntity
  8
DIMENSIONS
100
AcDbLine
 10
223.1486579490709
 20
220.2052649690296
 30
0.0
 11
223.1486579490709
 21
214.2589470061941
 31
0.0
  0
LWPOLYLINE
  5
8E
330
17
100
AcDbEntity
  8
DIM_ARROW
100
AcDbPolyline
 90
3
 70
1
 10
223.1486579490709
 20
220.2052649690296
 10
222.98348245010325
 20
219.2142119752237
 10
223.31383344803854
 20
219.2142119752237
  0
LWPOLYLINE
  5
8F
330
17
100
AcDbEntity
  8
DIM_ARROW
100
AcDbPolyline
 90
3
 70
1
 10
223.1486579490709
 20
214.2589470061941
 10
223.31383344803854
 20
215.25
 10
222.98348245010325
 20
215.25
  0
TEXT
  5
90
330
17
100
AcDbEntity
  8
TEXT
100
AcDbText
 10
221.16655196145905
 20
217.23210598761185
 30
0.0
 40
1.5
  1
Depth of Pier Cap at End
 50
90.0
  7
ROMANS
 72
1
 11
221.16655196145905
 21
217.23210598761185
 31
0.0
100
AcDbText
 73
2
  0
LINE
  5
91
330
17
100
AcDbEntity
  8
OBJECT
100
AcDbLine
 10
39.05396402398401
 20
103.0338107928048
 30
0.0
 11
200.946035976016
 21
103.0338107928048
 31
0.0
  0
LINE
  5
92
330
17
100
AcDbEntity
  8
OBJECT
370
60
100
AcDbLine
 10
39.05396402398401
 20
105.0338107928048
 30
0.0
 11
200.946035976016
 21
105.0338107928048
 31
0.0
  0
LWPOLYLINE
  5
93
330
17
100
AcDbEntity
  8
OBJECT
100
AcDbPolyline
 90
2
 70
0
 43
0.3
 10
39.05396402398401
 20
104.0338107928048
 10
200.946035976016
 20
104.0338107928048
  0
LWPOLYLINE
  5
94
330
17
100
AcDbEntity
  8
OBJECT
100
AcDbPolyline
 90
2
 70
0
 43
0.3
 10
39.05396402398401
 20
81.75
 10
200.946035976016
 20
81.75
  0
LINE
  5
95
330
17
100
AcDbEntity
  8
OBJECT
370
60
100
AcDbLine
 10
39.05396402398401
 20
82.75
 30
0.0
 11
200.946035976016
 21
82.75
 31
0.0
  0
LINE
  5
96
330
17
100
AcDbEntity
  8
OBJECT
100
AcDbLine
 10
39.05396402398401
 20
80.75
 30
0.0
 11
200.946035976016
 21
80.75
 31
0.0
  0
LINE
  5
97
330
17
100
AcDbEntity
  8
OBJECT
100
AcDbLine
 10
39.05396402398401
 20
60.4661892071952
 30
0.0
 11
200.946035976016
 21
60.4661892071952
 31
0.0
  0
LINE
  5
98
330
17
100
AcDbEntity
  8
OBJECT
370
60
100
AcDbLine
 10
39.05396402398401
 20
58.4661892071952
 30
0.0
 11
200.946035976016
 21
58.4661892071952
 31
0.0
  0
LWPOLYLINE
  5
99
330
17
100
AcDbEntity
  8
OBJECT
100
AcDbPolyline
 90
2
 70
0
 43
0.3
 10
39.05396402398401
 20
59.4661892071952
 10
200.946035976016
 20
59.4661892071952
  0
LWPOLYLINE
  5
9A
330
17
100
AcDbEntity
  8
OBJECT
100
AcDbPolyline
 90
4
 70
1
 10
34.05396402398401
 20
57.4661892071952
 10
43.37108594270486
 20
57.4661892071952
 10
43.37108594270486
 20
106.0338107928048
 10
34.05396402398401
 20
106.0338107928048
  0
LWPOLYLINE
  5
9B
330
17
100
AcDbEntity
  8
OBJECT
100
AcDbPolyline
 90
4
 70
1
 10
205.946035976016
 20
57.4661892071952
 10
196.62891405729513
 20
57.4661892071952
 10
196.62891405729513
 20
106.0338107928048
 10
205.946035976016
 20
106.0338107928048
  0
LINE
  5
9C
330
17
100
AcDbEntity
  8
DIMENSIONS
100
AcDbLine
 10
34.05396402398401
 20
106.81023761936487
 30
0.0
 11
34.05396402398401
 21
131.0338107928048
 31
0.0
  0
LINE
  5
9D
330
17
100
AcDbEntity
  8
DIMENSIONS
100
AcDbLine
 10
43.37108594270486
 20
106.81023761936487
 30
0.0
 11
43.37108594270486
 21
131.0338107928048
 31
0.0
  0
LINE
  5
9E
330
17
100
AcDbEntity
  8
DIMENSIONS
100
AcDbLine
 10
34.05396402398401
 20
131.0338107928048
 30
0.0
 11
43.37108594270486
 21
131.0338107928048
 31
0.0
  0
LWPOLYLINE
  5
9F
330
17
100
AcDbEntity
  8
DIM_ARROW
100
AcDbPolyline
 90
3
 70
1
 10
34.05396402398401
 20
131.0338107928048
 10
35.60681767710415
 20
130.77500185061808
 10
35.60681767710415
 20
131.2926197349915
  0
LWPOLYLINE
  5
A0
330
17
100
AcDbEntity
  8
DIM_ARROW
100
AcDbPolyline
 90
3
 70
1
 10
43.37108594270486
 20
131.0338107928048
 10
41.818232289584714
 20
131.2926197349915
 10
41.818232289584714
 20
130.77500185061808
  0
TEXT
  5
A1
330
17
100
AcDbEntity
  8
TEXT
100
AcDbText
 10
38.71252498334444
 20
134.13951809904506
 30
0.0
 40
1.5
  1
Width of Pier Cap
  7
ROMANS
 72
1
 11
38.71252498334444
 21
134.13951809904506
 31
0.0
100
AcDbText
 73
2
  0
LINE
  5
A2
330
17
100
AcDbEntity
  8
DIMENSIONS
100
AcDbLine
 10
196.62891405729513
 20
106.81023761936487
 30
0.0
 11
196.62891405729513
 21
131.0338107928048
 31
0.0
  0
LINE
  5
A3
330
17
100
AcDbEntity
  8
DIMENSIONS
100
AcDbLine
 10
205.946035976016
 20
106.81023761936487
 30
0.0
 11
205.946035976016
 21
131.0338107928048
 31
0.0
  0
LINE
  5
A4
330
17
100
AcDbEntity
  8
DIMENSIONS
100
AcDbLine
 10
196.62891405729513
 20
131.0338107928048
 30
0.0
 11
205.946035976016
 21
131.0338107928048
 31
0.0
  0
LWPOLYLINE
  5
A5
330
17
100
AcDbEntity
  8
DIM_ARROW
100
AcDbPolyline
 90
3
 70
1
 10
196.62891405729513
 20
131.0338107928048
 10
198.18176771041527
 20
130.77500185061808
 10
198.18176771041527
 20
131.2926197349915
  0
LWPOLYLINE
  5
A6
330
17
100
AcDbEntity
  8
DIM_ARROW
100
AcDbPolyline
 90
3
 70
1
 10
205.946035976016
 20
131.0338107928048
 10
204.39318232289585
 20
131.2926197349915
 10
204.39318232289585
 20
130.77500185061808
  0
TEXT
  5
A7
330
17
100
AcDbEntity
  8
TEXT
100
AcDbText
 10
201.28747501665555
 20
134.13951809904506
 30
0.0
 40
1.5
  1
Width of Pier Cap
  7
ROMANS
 72
1
 11
201.28747501665555
 21
134.13951809904506
 31
0.0
100
AcDbText
 73
2
  0
LINE
  5
A8
330
17
100
AcDbEntity
  8
DIMENSIONS
100
AcDbLine
 10
39.05396402398401
 20
107.5338107928048
 30
0.0
 11
39.05396402398401
 21
116.0338107928048
 31
0.0
  0
LINE
  5
A9
330
17
100
AcDbEntity
  8
DIMENSIONS
100
AcDbLine
 10
200.946035976016
 20
107.5338107928048
 30
0.0
 11
200.946035976016
 21
116.0338107928048
 31
0.0
  0
LINE
  5
AA
330
17
100
AcDbEntity
  8
DIMENSIONS
100
AcDbLine
 10
39.05396402398401
 20
116.0338107928048
 30
0.0
 11
200.946035976016
 21
116.0338107928048
 31
0.0
  0
LWPOLYLINE
  5
AB
330
17
100
AcDbEntity
  8
DIM_ARROW
100
AcDbPolyline
 90
3
 70
1
 10
39.05396402398401
 20
116.0338107928048
 10
42.05396402398401
 20
115.5338107928048
 10
42.05396402398401
 20
116.5338107928048
  0
LWPOLYLINE
  5
AC
330
17
100
AcDbEntity
  8
DIM_ARROW
100
AcDbPolyline
 90
3
 70
1
 10
200.946035976016
 20
116.0338107928048
 10
197.946035976016
 20
116.5338107928048
 10
197.946035976016
 20
115.5338107928048
  0
TEXT
  5
AD
330
17
100
AcDbEntity
  8
TEXT
100
AcDbText
 10
120.0
 20
122.0338107928048
 30
0.0
 40
1.5
  1
Length of Bridge
  7
ROMANS
 72
1
 11
120.0
 21
122.0338107928048
 31
0.0
100
AcDbText
 73
2
  0
LWPOLYLINE
  5
AE
330
17
100
AcDbEntity
  8
BORDER
100
AcDbPolyline
 90
5
 70
1
 10
230.0
 20
15.0
 10
390.0
 20
15.0
 10
390.0
 20
55.0
 10
230.0
 20
55.0
 10
230.0
 20
15.0
  0
MTEXT
  5
B0
330
17
100
AcDbEntity
  8
TEXT
100
AcDbMText
 10
310.0
 20
35.0
 30
0.0
 40
10.0
 71
5
  1
2025-06-11-R1-AB-09
  7
BOLD_TEXT
  0
ENDSEC
  0
SECTION
  2
OBJECTS
  0
DICTIONARY
  5
A
330
0
100
AcDbDictionary
281
1
  3
ACAD_COLOR
350
B
  3
ACAD_GROUP
350
C
  3
ACAD_LAYOUT
350
D
  3
ACAD_MATERIAL
350
E
  3
ACAD_MLEADERSTYLE
350
F
  3
ACAD_MLINESTYLE
350
10
  3
ACAD_PLOTSETTINGS
350
11
  3
ACAD_PLOTSTYLENAME
350
12
  3
ACAD_SCALELIST
350
14
  3
ACAD_TABLESTYLE
350
15
  3
ACAD_VISUALSTYLE
350
16
  3
EZDXF_META
350
2D
  0
DICTIONARY
  5
B
330
A
100
AcDbDictionary
281
1
  0
DICTIONARY
  5
C
330
A
100
AcDbDictionary
281
1
  0
DICTIONARY
  5
D
330
A
100
AcDbDictionary
281
1
  3
Model
350
1A
  3
Layout1
350
1E
  0
DICTIONARY
  5
E
330
A
100
AcDbDictionary
281
1
  3
ByBlock
350
1F
  3
ByLayer
350
20
  3
Global
350
21
  0
DICTIONARY
  5
F
330
A
100
AcDbDictionary
281
1
  3
Standard
350
2C
  0
DICTIONARY
  5
10
330
A
100
AcDbDictionary
281
1
  3
Standard
350
22
  0
DICTIONARY
  5
11
330
A
100
AcDbDictionary
281
1
  0
ACDBDICTIONARYWDFLT
  5
12
330
A
100
AcDbDictionary
281
1
  3
Normal
350
13
100
AcDbDictionaryWithDefault
340
13
  0
ACDBPLACEHOLDER
  5
13
330
12
  0
DICTIONARY
  5
14
330
A
100
AcDbDictionary
281
1
  0
DICTIONARY
  5
15
330
A
100
AcDbDictionary
281
1
  0
DICTIONARY
  5
16
330
A
100
AcDbDictionary
281
1
  0
LAYOUT
  5
1A
330
D
100
AcDbPlotSettings
  1

  4
A3
  6

 40
7.5
 41
20.0
 42
7.5
 43
20.0
 44
420.0
 45
297.0
 46
0.0
 47
0.0
 48
0.0
 49
0.0
140
0.0
141
0.0
142
1.0
143
1.0
 70
1024
 72
1
 73
0
 74
5
  7

 75
16
 76
0
 77
2
 78
300
147
1.0
148
0.0
149
0.0
100
AcDbLayout
  1
Model
 70
1
 71
0
 10
0.0
 20
0.0
 11
420.0
 21
297.0
 12
0.0
 22
0.0
 32
0.0
 14
1e+20
 24
1e+20
 34
1e+20
 15
-1e+20
 25
-1e+20
 35
-1e+20
146
0.0
 13
0.0
 23
0.0
 33
0.0
 16
1.0
 26
0.0
 36
0.0
 17
0.0
 27
1.0
 37
0.0
 76
1
330
17
  0
LAYOUT
  5
1E
330
D
100
AcDbPlotSettings
  1

  4
A3
  6

 40
7.5
 41
20.0
 42
7.5
 43
20.0
 44
420.0
 45
297.0
 46
0.0
 47
0.0
 48
0.0
 49
0.0
140
0.0
141
0.0
142
1.0
143
1.0
 70
0
 72
1
 73
0
 74
5
  7

 75
16
 76
0
 77
2
 78
300
147
1.0
148
0.0
149
0.0
100
AcDbLayout
  1
Layout1
 70
1
 71
1
 10
0.0
 20
0.0
 11
420.0
 21
297.0
 12
0.0
 22
0.0
 32
0.0
 14
1e+20
 24
1e+20
 34
1e+20
 15
-1e+20
 25
-1e+20
 35
-1e+20
146
0.0
 13
0.0
 23
0.0
 33
0.0
 16
1.0
 26
0.0
 36
0.0
 17
0.0
 27
1.0
 37
0.0
 76
1
330
1B
  0
MATERIAL
  5
1F
102
{ACAD_REACTORS
330
E
102
}
330
E
100
AcDbMaterial
  1
ByBlock
  2

 70
0
 40
1.0
 71
1
 41
1.0
 91
-1023410177
 42
1.0
 72
1
  3

 73
1
 74
1
 75
1
 44
0.5
 73
0
 45
1.0
 46
1.0
 77
1
  4

 78
1
 79
1
170
1
 48
1.0
171
1
  6

172
1
173
1
174
1
140
1.0
141
1.0
175
1
  7

176
1
177
1
178
1
143
1.0
179
1
  8

270
1
271
1
272
1
145
1.0
146
1.0
273
1
  9

274
1
275
1
276
1
 42
1.0
 72
1
  3

 73
1
 74
1
 75
1
 94
63
  0
MATERIAL
  5
20
102
{ACAD_REACTORS
330
E
102
}
330
E
100
AcDbMaterial
  1
ByLayer
  2

 70
0
 40
1.0
 71
1
 41
1.0
 91
-1023410177
 42
1.0
 72
1
  3

 73
1
 74
1
 75
1
 44
0.5
 73
0
 45
1.0
 46
1.0
 77
1
  4

 78
1
 79
1
170
1
 48
1.0
171
1
  6

172
1
173
1
174
1
140
1.0
141
1.0
175
1
  7

176
1
177
1
178
1
143
1.0
179
1
  8

270
1
271
1
272
1
145
1.0
146
1.0
273
1
  9

274
1
275
1
276
1
 42
1.0
 72
1
  3

 73
1
 74
1
 75
1
 94
63
  0
MATERIAL
  5
21
102
{ACAD_REACTORS
330
E
102
}
330
E
100
AcDbMaterial
  1
Global
  2

 70
0
 40
1.0
 71
1
 41
1.0
 91
-1023410177
 42
1.0
 72
1
  3

 73
1
 74
1
 75
1
 44
0.5
 73
0
 45
1.0
 46
1.0
 77
1
  4

 78
1
 79
1
170
1
 48
1.0
171
1
  6

172
1
173
1
174
1
140
1.0
141
1.0
175
1
  7

176
1
177
1
178
1
143
1.0
179
1
  8

270
1
271
1
272
1
145
1.0
146
1.0
273
1
  9

274
1
275
1
276
1
 42
1.0
 72
1
  3

 73
1
 74
1
 75
1
 94
63
  0
MLINESTYLE
  5
22
102
{ACAD_REACTORS
330
10
102
}
330
10
100
AcDbMlineStyle
  2
Standard
 70
0
  3

 62
256
 51
90.0
 52
90.0
 71
2
 49
0.5
 62
256
  6
BYLAYER
 49
-0.5
 62
256
  6
BYLAYER
  0
MLEADERSTYLE
  5
2C
102
{ACAD_REACTORS
330
F
102
}
330
F
100
AcDbMLeaderStyle
179
2
170
2
171
1
172
0
 90
2
 40
0.0
 41
0.0
173
1
 91
-1056964608
 92
-2
290
1
 42
2.0
291
1
 43
8.0
  3
Standard
 44
4.0
300

342
29
174
1
175
1
176
0
178
1
 93
-1056964608
 45
4.0
292
0
297
0
 46
4.0
 94
-1056964608
 47
1.0
 49
1.0
140
1.0
294
1
141
0.0
177
0
142
1.0
295
0
296
0
143
3.75
271
0
272
9
273
9
  0
DICTIONARY
  5
2D
330
A
100
AcDbDictionary
280
1
281
1
  3
CREATED_BY_EZDXF
350
2E
  3
WRITTEN_BY_EZDXF
350
B3
  0
DICTIONARYVAR
  5
2E
330
2D
100
DictionaryVariables
280
0
  1
1.4.3 @ 2025-12-21T10:52:11.356381+00:00
  0
DICTIONARYVAR
  5
B3
330
2D
100
DictionaryVariables
280
0
  1
1.4.3 @ 2025-12-21T10:52:11.358358+00:00
  0
ENDSEC
  0
EOF
